<?xml version="1.0" encoding="UTF-8" standalone="no"?>
<!-- Generator: Gravit.io -->
<svg xmlns="http://www.w3.org/2000/svg" xmlns:xlink="http://www.w3.org/1999/xlink" style="isolation:isolate" viewBox="0 0 512 512" width="512" height="512"><defs><clipPath id="_clipPath_xSVBnnc0a59CuFV4MGrNUYgbNRlfP1AW"><rect width="512" height="512"/></clipPath></defs><g clip-path="url(#_clipPath_xSVBnnc0a59CuFV4MGrNUYgbNRlfP1AW)"><rect width="512" height="512" style="fill:rgb(0,0,0)"/><path d=" M 107 307.667 C 219.333 279.333 310 288.667 418 314 Q 485.758 214.319 468 203 C 443.099 187.128 424.847 224.696 381 205 C 343.712 188.25 351.763 82.213 250 83 C 138.312 83.863 174.611 199.019 103 211 C 83.176 214.317 51.459 188.469 39 202 C 25.034 217.169 98.333 294 107 307.667 Z " fill="rgb(0,0,0)"/><path d=" M 174 320 Q 225.75 320 235 341 Q 294.715 337.665 299.25 292.5 L 311.25 293.5 Q 300.137 347.268 238 352 C 229.5 395.25 200.032 423.751 173.5 423 C 147 422.25 114.181 385.516 114 352 C 113.904 334.202 125.788 320 174 320 Z " fill="rgb(0,0,0)"/><path d=" M 219.5 168.5 C 214.25 164.75 196.645 170.342 195 155.125 C 194.184 147.576 203.206 145.593 209.375 143.125 C 213.899 138.19 215.231 132.7 220.875 132.875 C 233 133.25 227.375 151 231.125 157.625 C 237.141 168.254 245.625 178.875 253.25 187.5 C 256.5 190.75 275.996 185.09 278.875 198.25 C 278 215 269.935 207.387 265 211.5 C 260.887 215.201 259.765 226.523 254.25 225.25 C 236.375 221.125 242.75 204.25 242 198.625 C 240.5 191 230.161 179.399 219.5 168.5 Z " fill="rgb(255,255,255)"/><path d=" M 242 236 C 237.466 242.734 248.412 257.43 236 262.667 C 221.237 268.759 223.946 256.1 219 252 C 214.609 248.634 205.562 250.987 206 244 C 207.104 226.374 220.21 231.501 224.333 228.667 C 227.54 226.462 232.034 221.953 238.25 215 C 241.083 219.833 244.26 223.677 247.75 226.5 Q 243.469 233.819 242 236 Z " fill="rgb(255,255,255)"/><path d=" M 277.25 188.25 C 282.875 181.286 287.055 176.957 290 174.667 C 296 170 318.414 171.527 315.333 157.667 C 313.333 148.667 306.102 153.14 300.423 149.594 C 296.667 141.667 292.606 134.817 285.333 137 C 270.674 141.4 282.333 159 278.333 165 C 275.52 169.22 271.171 176.049 264.25 184.75 C 269.634 185.102 273.977 186.279 277.25 188.25 Z " fill="rgb(255,255,255)"/><path d=" M 177.472 366.714 C 179.082 367.369 180.685 368.044 182.213 368.872 C 188.5 372.281 190.192 380.024 185.751 385.314 C 184.153 387.227 182.078 388.509 179.64 389.16 C 179.331 389.244 178.515 389.356 177.472 389.466 L 177.472 396.582 L 173.144 396.582 L 173.144 389.806 C 171.741 389.878 170.506 389.894 169.919 389.801 C 167.772 389.466 165.665 388.987 163.694 388.051 C 162.148 387.309 161.982 386.932 162.428 385.345 C 162.76 384.165 163.092 382.984 163.466 381.814 C 163.902 380.461 164.275 380.288 165.551 380.939 C 167.73 382.048 170.044 382.669 172.461 382.964 C 172.69 382.992 172.917 383.013 173.144 383.026 L 173.144 373.969 C 171.456 373.302 169.767 372.645 168.197 371.721 C 164.576 369.595 162.273 366.675 162.543 362.35 C 162.843 357.467 165.665 354.414 170.23 352.786 C 170.837 352.571 171.903 352.389 173.144 352.254 L 173.144 346.494 L 177.472 346.494 L 177.472 351.989 C 178.782 351.967 179.951 352.005 180.678 352.115 C 182.379 352.379 183.998 352.868 185.575 353.549 C 186.436 353.926 186.768 354.516 186.498 355.411 C 186.093 356.744 185.73 358.087 185.295 359.41 C 184.88 360.661 184.475 360.845 183.251 360.265 C 181.397 359.39 179.472 358.897 177.472 358.769 L 177.472 366.714 Z  M 173.144 364.621 C 172.993 364.516 172.845 364.407 172.7 364.294 C 170.78 362.792 171.053 360.393 173.144 359.309 L 173.144 364.621 Z  M 177.472 376.04 C 177.596 376.13 177.717 376.223 177.835 376.32 C 179.966 378.047 179.734 380.847 177.472 382.146 L 177.472 376.04 Z " fill-rule="evenodd" fill="rgb(255,210,154)"/><path d=" M 175.368 332.535 Q 213.285 331.587 222.764 344.479 C 231.682 356.607 208.356 411.972 174.23 410.645 C 140.104 409.317 120.956 359.456 126.265 345.995 Q 131.573 332.535 175.368 332.535 Z " fill="none" vector-effect="non-scaling-stroke" stroke-width="5" stroke="rgb(255,255,255)" stroke-linejoin="miter" stroke-linecap="square" stroke-miterlimit="3"/></g></svg>